<svg width="30" height="24" viewBox="0 0 30 24" fill="none" xmlns="http://www.w3.org/2000/svg">
<g id="Frame">
<path id="email" d="M28 2H4C3.46957 2 2.96086 2.21071 2.58579 2.58579C2.21071 2.96086 2 3.46957 2 4V20C2 20.5304 2.21071 21.0391 2.58579 21.4142C2.96086 21.7893 3.46957 22 4 22H28C28.5304 22 29.0391 21.7893 29.4142 21.4142C29.7893 21.0391 30 20.5304 30 20V4C30 3.46957 29.7893 2.96086 29.4142 2.58579C29.0391 2.21071 28.5304 2 28 2ZM25.8 4L16 10.78L6.2 4H25.8ZM4 20V4.91L15.43 12.82C15.5974 12.9361 15.7963 12.9984 16 12.9984C16.2037 12.9984 16.4026 12.9361 16.57 12.82L28 4.91V20H4Z" fill="black"/>
</g>
</svg>
